<svg width="22" height="21" viewBox="0 0 22 21" fill="none" xmlns="http://www.w3.org/2000/svg">
<path d="M11 20.936C16.632 20.936 21.296 16.36 21.296 10.64C21.296 4.964 16.676 0.343999 11 0.343999C5.324 0.343999 0.704 4.964 0.704 10.64C0.704 16.316 5.324 20.936 11 20.936ZM11 20.21C5.72 20.21 1.43 15.92 1.43 10.64C1.43 5.404 5.676 1.07 11 1.07C16.28 1.07 20.57 5.36 20.57 10.64C20.57 15.92 16.28 20.21 11 20.21ZM10.362 16.25H12.606V4.788H10.89C10.098 5.228 9.218 5.536 7.986 5.756V7.186H10.362V16.25Z" fill="black"/>
</svg>
