<svg width="22" height="21" viewBox="0 0 22 21" fill="none" xmlns="http://www.w3.org/2000/svg">
<path d="M11 20.936C16.632 20.936 21.296 16.36 21.296 10.64C21.296 4.964 16.676 0.343999 11 0.343999C5.324 0.343999 0.704 4.964 0.704 10.64C0.704 16.316 5.324 20.936 11 20.936ZM11 20.21C5.72 20.21 1.43 15.92 1.43 10.64C1.43 5.404 5.676 1.07 11 1.07C16.28 1.07 20.57 5.36 20.57 10.64C20.57 15.92 16.28 20.21 11 20.21ZM7.106 16.25H15.4V14.358H12.54C11.814 14.358 10.978 14.402 10.318 14.468C12.804 12.202 14.916 10.09 14.916 8.022C14.916 5.932 13.354 4.524 10.956 4.524C9.372 4.524 8.052 5.14 6.908 6.328L8.162 7.538C8.844 6.9 9.68 6.284 10.714 6.284C12.056 6.284 12.738 7.01 12.738 8.22C12.738 9.936 10.582 11.938 7.106 14.952V16.25Z" fill="black"/>
</svg>
