<svg width="22" height="21" viewBox="0 0 22 21" fill="none" xmlns="http://www.w3.org/2000/svg">
<path d="M11 20.936C16.632 20.936 21.296 16.36 21.296 10.64C21.296 4.964 16.676 0.343999 11 0.343999C5.324 0.343999 0.704 4.964 0.704 10.64C0.704 16.316 5.324 20.936 11 20.936ZM11 20.21C5.72 20.21 1.43 15.92 1.43 10.64C1.43 5.404 5.676 1.07 11 1.07C16.28 1.07 20.57 5.36 20.57 10.64C20.57 15.92 16.28 20.21 11 20.21ZM10.824 16.514C13.288 16.514 15.29 15.282 15.29 13.192C15.29 11.63 14.124 10.684 12.65 10.288V10.222C13.97 9.738 14.828 8.88 14.828 7.626C14.828 5.646 13.178 4.524 10.78 4.524C9.262 4.524 8.008 5.096 6.974 5.998L8.118 7.384C8.888 6.658 9.746 6.262 10.714 6.262C11.902 6.262 12.606 6.834 12.606 7.78C12.606 8.814 11.748 9.54 9.262 9.54V11.146C12.144 11.146 13.002 11.872 13.002 13.038C13.002 14.072 12.078 14.732 10.78 14.732C9.372 14.732 8.382 14.16 7.612 13.456L6.556 14.864C7.414 15.81 8.91 16.514 10.824 16.514Z" fill="black"/>
</svg>
